<?xml version="1.0" encoding="UTF-8"?>
<svg xmlns="http://www.w3.org/2000/svg" class="svgClass" height="25vw" width="25vw">
  <rect class="rect-svg" fill="rgb(95,255,205)" height="20%" width="20%" x="0%" y="0%"></rect>
  <rect class="rect-svg" fill="#f2f2f2" height="20%" width="20%" x="20%" y="0%"></rect>
  <rect class="rect-svg" fill="#f2f2f2" height="20%" width="20%" x="40%" y="0%"></rect>
  <rect class="rect-svg" fill="#f2f2f2" height="20%" width="20%" x="60%" y="0%"></rect>
  <rect class="rect-svg" fill="rgb(95,255,205)" height="20%" width="20%" x="80%" y="0%"></rect>
  <rect class="rect-svg" fill="#f2f2f2" height="20%" width="20%" x="0%" y="20%"></rect>
  <rect class="rect-svg" fill="rgb(95,255,205)" height="20%" width="20%" x="20%" y="20%"></rect>
  <rect class="rect-svg" fill="rgb(95,255,205)" height="20%" width="20%" x="40%" y="20%"></rect>
  <rect class="rect-svg" fill="rgb(95,255,205)" height="20%" width="20%" x="60%" y="20%"></rect>
  <rect class="rect-svg" fill="#f2f2f2" height="20%" width="20%" x="80%" y="20%"></rect>
  <rect class="rect-svg" fill="rgb(95,255,205)" height="20%" width="20%" x="0%" y="40%"></rect>
  <rect class="rect-svg" fill="rgb(95,255,205)" height="20%" width="20%" x="20%" y="40%"></rect>
  <rect class="rect-svg" fill="rgb(95,255,205)" height="20%" width="20%" x="40%" y="40%"></rect>
  <rect class="rect-svg" fill="rgb(95,255,205)" height="20%" width="20%" x="60%" y="40%"></rect>
  <rect class="rect-svg" fill="rgb(95,255,205)" height="20%" width="20%" x="80%" y="40%"></rect>
  <rect class="rect-svg" fill="#f2f2f2" height="20%" width="20%" x="0%" y="60%"></rect>
  <rect class="rect-svg" fill="#f2f2f2" height="20%" width="20%" x="20%" y="60%"></rect>
  <rect class="rect-svg" fill="#f2f2f2" height="20%" width="20%" x="40%" y="60%"></rect>
  <rect class="rect-svg" fill="#f2f2f2" height="20%" width="20%" x="60%" y="60%"></rect>
  <rect class="rect-svg" fill="#f2f2f2" height="20%" width="20%" x="80%" y="60%"></rect>
  <rect class="rect-svg" fill="rgb(95,255,205)" height="20%" width="20%" x="0%" y="80%"></rect>
  <rect class="rect-svg" fill="#f2f2f2" height="20%" width="20%" x="20%" y="80%"></rect>
  <rect class="rect-svg" fill="#f2f2f2" height="20%" width="20%" x="40%" y="80%"></rect>
  <rect class="rect-svg" fill="#f2f2f2" height="20%" width="20%" x="60%" y="80%"></rect>
  <rect class="rect-svg" fill="rgb(95,255,205)" height="20%" width="20%" x="80%" y="80%"></rect>
</svg>
